<?xml version="1.0" encoding="utf-8"?>
<!-- Generator: Adobe Illustrator 22.0.0, SVG Export Plug-In . SVG Version: 6.00 Build 0)  -->
<svg version="1.1" id="Layer_1" xmlns="http://www.w3.org/2000/svg" xmlns:xlink="http://www.w3.org/1999/xlink" x="0px" y="0px"
	 viewBox="0 0 180.2 100.5" style="enable-background:new 0 0 180.2 100.5;" xml:space="preserve">
<style type="text/css">
	.st0{fill:#CF693A;}
</style>
<polygon class="st0" points="154.6,17.2 138.7,17.2 138.7,44.6 112.9,44.6 112.9,59.5 138.7,59.5 138.7,88.8 154.6,88.8 154.6,59.5 
	180.3,59.5 180.3,44.6 154.6,44.6 "/>
<path class="st0" d="M92.7,42.7c-5-6.1-11.9-9.2-20.6-9.2c-8.2,0-14.9,2.8-20.2,8.3c1-9,4.3-16,9.8-20.9c5.5-4.9,12.8-7.4,22-7.6h2
	V-0.2h-1.7c-15.8,0-27.8,4.9-36.2,14.7C39.4,24.3,35.3,37.8,35.3,55v5.6c0,11.8,3,21.3,9.2,28.5c6.1,7.2,14.1,10.9,23.9,10.9
	c9.5,0,17.3-3.1,23.1-9.3c5.9-6.2,8.8-14.3,8.8-24.3C100.2,56.8,97.7,48.9,92.7,42.7z M79.7,81.3c-2.8,3.6-6.7,5.5-11.5,5.5
	c-4.9,0-8.8-2.1-11.9-6.5c-3.1-4.3-4.6-10.1-4.6-17.4v-5c1.4-3.4,3.6-6.1,6.6-8.1c3-2,6.3-3,9.9-3c4.8,0,8.6,1.9,11.5,5.6
	c2.9,3.7,4.3,8.6,4.3,14.5C83.9,72.8,82.5,77.6,79.7,81.3z"/>
<polygon class="st0" points="16.4,0 14.3,0 -24,14.1 -24,27.9 0.1,19.6 0.1,98.6 16.4,98.6 "/>
</svg>
